<svg xmlns="http://www.w3.org/2000/svg" viewBox="0 0 10606.17 4424.57" shape-rendering="geometricPrecision" image-rendering="optimizeQuality" fill-rule="evenodd" >
         <animateTransform
                  attributeName="transform"
                  type="translate"
                  values="0,20; 0,0; 0,20;"
                  dur="2s"
                  repeatCount="indefinite"
                />
<path d="M7136.39 4054.32c-446.73 288.23-1102.37 470.24-1833.31 470.24-730.91 0-1386.59-182.01-1833.3-470.24 573.5 52.6 1190.45 81.32 1833.3 81.32 642.87 0 1259.79-28.71 1833.31-81.32zM5303.08 1117.65c331.94 0 601.01 269.07 601.01 601.01s-269.08 601.01-601.01 601.01c-331.95 0-601.02-269.08-601.02-601.01 0-331.95 269.08-601.01 601.02-601.01zM3656.43 955.78c-238.21-61.94-499.05 148.25-582.61 469.5-83.55 321.25 41.81 631.89 280.02 693.84 238.2 61.95 499.05-148.24 582.59-469.47 83.57-321.25-41.79-631.91-280-693.87zm3293.32 0c238.21-61.94 499.02 148.25 582.6 469.5 83.58 321.23-41.82 631.88-280.03 693.84-238.22 61.95-499.03-148.25-582.61-469.49-83.54-321.23 41.86-631.88 280.04-693.85zM5303.07-.01c870.09 0 1653.25 210.21 2199.75 545.65h.25l790.58 1145.74h-4.03c1398.42 221.21 2316.53 593.38 2316.53 1015.28 0 678.52-2374.26 1228.55-5303.08 1228.55C2374.26 3935.21-.01 3385.19-.01 2706.66c0-421.9 918.1-794.07 2316.55-1015.28h-4.04l790.6-1145.74h.23C3649.85 210.21 4433-.01 5303.07-.01z" fill="#b6c8d2"/></svg>